<svg width="22" height="17" viewBox="0 0 22 17" fill="none" xmlns="http://www.w3.org/2000/svg">
<g clip-path="url(#clip0_8_220)">
<path fill-rule="evenodd" clip-rule="evenodd" d="M11.0214 8.91157C10.8382 8.72811 10.7352 8.47944 10.7352 8.22016C10.7352 7.96088 10.8382 7.7122 11.0214 7.52875L14.7106 3.83819C14.8942 3.65473 15.1431 3.5517 15.4026 3.55176C15.6621 3.55182 15.911 3.65497 16.0944 3.83851C16.2779 4.02206 16.3809 4.27097 16.3809 4.53048C16.3808 4.78999 16.2776 5.03885 16.0941 5.22231L13.0963 8.22016L16.0941 11.218C16.2724 11.4024 16.3712 11.6496 16.369 11.9061C16.3669 12.1626 16.2642 12.4081 16.0828 12.5896C15.9015 12.7711 15.6562 12.8741 15.3996 12.8764C15.1431 12.8788 14.8959 12.7803 14.7113 12.6021L11.0207 8.91222L11.0214 8.91157Z" fill="white" fill-opacity="0.19"/>
</g>
<g clip-path="url(#clip1_8_220)">
<path fill-rule="evenodd" clip-rule="evenodd" d="M5.80263 8.91157C5.6194 8.72811 5.51649 8.47944 5.51649 8.22016C5.51649 7.96088 5.6194 7.7122 5.80263 7.52875L9.49188 3.83819C9.67543 3.65473 9.92434 3.5517 10.1838 3.55176C10.4434 3.55182 10.6922 3.65497 10.8757 3.83851C11.0591 4.02206 11.1622 4.27097 11.1621 4.53048C11.162 4.78999 11.0589 5.03885 10.8754 5.22231L7.87751 8.22016L10.8754 11.218C11.0537 11.4024 11.1524 11.6496 11.1503 11.9061C11.1482 12.1626 11.0454 12.4081 10.8641 12.5896C10.6828 12.7711 10.4374 12.8741 10.1809 12.8764C9.92434 12.8788 9.67715 12.7803 9.49253 12.6021L5.80197 8.91222L5.80263 8.91157Z" fill="white" fill-opacity="0.19"/>
</g>
<defs>
<clipPath id="clip0_8_220">
<rect width="15.6545" height="15.6545" fill="white" transform="matrix(0 1 -1 0 21.4961 0.392822)"/>
</clipPath>
<clipPath id="clip1_8_220">
<rect width="15.6545" height="15.6545" fill="white" transform="matrix(0 1 -1 0 16.2773 0.392822)"/>
</clipPath>
</defs>
</svg>
