<svg width="426" height="278" viewBox="0 0 426 278" fill="none" xmlns="http://www.w3.org/2000/svg">
<g filter="url(#filter0_d_8_108)">
<path d="M11.8133 61.1748C14.0257 61.1748 16.1474 62.084 17.7118 63.7025C19.2762 65.3209 20.155 67.5159 20.155 69.8047C20.155 72.7523 18.6016 75.1649 16.9648 76.8957C16.147 77.7511 15.2547 78.5266 14.2992 79.2123L13.9043 79.4904L13.7189 79.6179L13.3695 79.8481L13.0581 80.0446L12.6725 80.2767C12.4108 80.4312 12.1147 80.5125 11.8133 80.5125C11.512 80.5125 11.2159 80.4312 10.9542 80.2767L10.5686 80.0446L10.0866 79.7378L9.90866 79.6179L9.52865 79.3562C8.49784 78.6346 7.53769 77.8105 6.6619 76.8957C5.02508 75.1639 3.47168 72.7523 3.47168 69.8047C3.47168 67.5159 4.35053 65.3209 5.9149 63.7025C7.47926 62.084 9.601 61.1748 11.8133 61.1748ZM11.8133 66.9281C11.4482 66.9281 11.0866 67.0025 10.7493 67.1471C10.4119 67.2916 10.1054 67.5035 9.84719 67.7706C9.58899 68.0378 9.38418 68.3549 9.24444 68.7039C9.10471 69.0529 9.03279 69.427 9.03279 69.8047C9.03279 70.1825 9.10471 70.5566 9.24444 70.9056C9.38418 71.2546 9.58899 71.5717 9.84719 71.8388C10.1054 72.106 10.4119 72.3178 10.7493 72.4624C11.0866 72.607 11.4482 72.6814 11.8133 72.6814C12.5508 72.6814 13.258 72.3783 13.7795 71.8388C14.3009 71.2994 14.5939 70.5677 14.5939 69.8047C14.5939 69.0418 14.3009 68.3101 13.7795 67.7706C13.258 67.2312 12.5508 66.9281 11.8133 66.9281Z" fill="white"/>
</g>
<g filter="url(#filter1_d_8_108)">
<path d="M105.426 39.1211C107.638 39.1211 109.76 40.0303 111.324 41.6487C112.888 43.2672 113.767 45.4622 113.767 47.751C113.767 50.6986 112.214 53.1112 110.577 54.842C109.759 55.6973 108.867 56.4729 107.911 57.1586L107.517 57.4367L107.331 57.5642L106.982 57.7944L106.67 57.9909L106.285 58.223C106.023 58.3775 105.727 58.4588 105.426 58.4588C105.124 58.4588 104.828 58.3775 104.566 58.223L104.181 57.9909L103.699 57.6841L103.521 57.5642L103.141 57.3025C102.11 56.5809 101.15 55.7568 100.274 54.842C98.6374 53.1102 97.084 50.6986 97.084 47.751C97.084 45.4622 97.9628 43.2672 99.5272 41.6487C101.092 40.0303 103.213 39.1211 105.426 39.1211ZM105.426 44.8744C105.06 44.8744 104.699 44.9488 104.362 45.0934C104.024 45.2379 103.718 45.4498 103.459 45.7169C103.201 45.9841 102.996 46.3012 102.857 46.6502C102.717 46.9992 102.645 47.3733 102.645 47.751C102.645 48.1288 102.717 48.5029 102.857 48.8519C102.996 49.2009 103.201 49.518 103.459 49.7851C103.718 50.0522 104.024 50.2641 104.362 50.4087C104.699 50.5533 105.06 50.6277 105.426 50.6277C106.163 50.6277 106.87 50.3246 107.392 49.7851C107.913 49.2456 108.206 48.514 108.206 47.751C108.206 46.9881 107.913 46.2564 107.392 45.7169C106.87 45.1775 106.163 44.8744 105.426 44.8744Z" fill="white"/>
</g>
<g filter="url(#filter2_d_8_108)">
<path d="M97.0839 0.765137C99.2962 0.765137 101.418 1.67436 102.982 3.29279C104.547 4.91121 105.426 7.10627 105.426 9.39507C105.426 12.3427 103.872 14.7552 102.235 16.486C101.418 17.3414 100.525 18.1169 99.5697 18.8027L99.1748 19.0807L98.9895 19.2083L98.64 19.4384L98.3286 19.635L97.943 19.867C97.6813 20.0216 97.3852 20.1028 97.0839 20.1028C96.7825 20.1028 96.4864 20.0216 96.2247 19.867L95.8391 19.635L95.3571 19.3281L95.1792 19.2083L94.7992 18.9465C93.7683 18.225 92.8082 17.4009 91.9324 16.486C90.2956 14.7543 88.7422 12.3427 88.7422 9.39507C88.7422 7.10627 89.621 4.91121 91.1854 3.29279C92.7498 1.67436 94.8715 0.765137 97.0839 0.765137ZM97.0839 6.51843C96.7187 6.51843 96.3571 6.59283 96.0198 6.7374C95.6824 6.88196 95.3759 7.09386 95.1177 7.36098C94.8595 7.6281 94.6547 7.94522 94.515 8.29423C94.3752 8.64324 94.3033 9.01731 94.3033 9.39507C94.3033 9.77284 94.3752 10.1469 94.515 10.4959C94.6547 10.8449 94.8595 11.162 95.1177 11.4292C95.3759 11.6963 95.6824 11.9082 96.0198 12.0527C96.3571 12.1973 96.7187 12.2717 97.0839 12.2717C97.8213 12.2717 98.5285 11.9686 99.05 11.4292C99.5715 10.8897 99.8644 10.158 99.8644 9.39507C99.8644 8.63214 99.5715 7.90045 99.05 7.36098C98.5285 6.8215 97.8213 6.51843 97.0839 6.51843Z" fill="white"/>
</g>
<g filter="url(#filter3_d_8_108)">
<path d="M282.454 154.187C284.666 154.187 286.788 155.096 288.352 156.714C289.917 158.333 290.796 160.528 290.796 162.816C290.796 165.764 289.242 168.177 287.605 169.907C286.788 170.763 285.895 171.538 284.94 172.224L284.545 172.502L284.36 172.63L284.01 172.86L283.699 173.056L283.313 173.288C283.051 173.443 282.755 173.524 282.454 173.524C282.153 173.524 281.856 173.443 281.595 173.288L281.209 173.056L280.727 172.75L280.549 172.63L280.169 172.368C279.138 171.646 278.178 170.822 277.303 169.907C275.666 168.176 274.112 165.764 274.112 162.816C274.112 160.528 274.991 158.333 276.556 156.714C278.12 155.096 280.242 154.187 282.454 154.187ZM282.454 159.94C282.089 159.94 281.727 160.014 281.39 160.159C281.053 160.303 280.746 160.515 280.488 160.782C280.23 161.049 280.025 161.367 279.885 161.716C279.745 162.065 279.673 162.439 279.673 162.816C279.673 163.194 279.745 163.568 279.885 163.917C280.025 164.266 280.23 164.583 280.488 164.851C280.746 165.118 281.053 165.33 281.39 165.474C281.727 165.619 282.089 165.693 282.454 165.693C283.191 165.693 283.899 165.39 284.42 164.851C284.942 164.311 285.235 163.579 285.235 162.816C285.235 162.054 284.942 161.322 284.42 160.782C283.899 160.243 283.191 159.94 282.454 159.94Z" fill="white"/>
</g>
<g filter="url(#filter4_d_8_108)">
<path d="M277.82 154.187C280.033 154.187 282.154 155.096 283.719 156.714C285.283 158.333 286.162 160.528 286.162 162.816C286.162 165.764 284.608 168.177 282.972 169.907C282.154 170.763 281.262 171.538 280.306 172.224L279.911 172.502L279.726 172.63L279.376 172.86L279.065 173.056L278.679 173.288C278.418 173.443 278.122 173.524 277.82 173.524C277.519 173.524 277.223 173.443 276.961 173.288L276.575 173.056L276.093 172.75L275.915 172.63L275.535 172.368C274.505 171.646 273.545 170.822 272.669 169.907C271.032 168.176 269.479 165.764 269.479 162.816C269.479 160.528 270.357 158.333 271.922 156.714C273.486 155.096 275.608 154.187 277.82 154.187ZM277.82 159.94C277.455 159.94 277.093 160.014 276.756 160.159C276.419 160.303 276.112 160.515 275.854 160.782C275.596 161.049 275.391 161.367 275.251 161.716C275.112 162.065 275.04 162.439 275.04 162.816C275.04 163.194 275.112 163.568 275.251 163.917C275.391 164.266 275.596 164.583 275.854 164.851C276.112 165.118 276.419 165.33 276.756 165.474C277.093 165.619 277.455 165.693 277.82 165.693C278.558 165.693 279.265 165.39 279.786 164.851C280.308 164.311 280.601 163.579 280.601 162.816C280.601 162.054 280.308 161.322 279.786 160.782C279.265 160.243 278.558 159.94 277.82 159.94Z" fill="white"/>
</g>
<g filter="url(#filter5_d_8_108)">
<path d="M309.333 189.665C311.545 189.665 313.667 190.574 315.231 192.193C316.796 193.811 317.675 196.006 317.675 198.295C317.675 201.243 316.121 203.655 314.484 205.386C313.667 206.241 312.774 207.017 311.819 207.703L311.424 207.981L311.238 208.108L310.889 208.338L310.578 208.535L310.192 208.767C309.93 208.921 309.634 209.003 309.333 209.003C309.032 209.003 308.735 208.921 308.474 208.767L308.088 208.535L307.606 208.228L307.428 208.108L307.048 207.846C306.017 207.125 305.057 206.301 304.181 205.386C302.545 203.654 300.991 201.243 300.991 198.295C300.991 196.006 301.87 193.811 303.434 192.193C304.999 190.574 307.121 189.665 309.333 189.665ZM309.333 195.418C308.968 195.418 308.606 195.493 308.269 195.637C307.931 195.782 307.625 195.994 307.367 196.261C307.109 196.528 306.904 196.845 306.764 197.194C306.624 197.543 306.552 197.917 306.552 198.295C306.552 198.673 306.624 199.047 306.764 199.396C306.904 199.745 307.109 200.062 307.367 200.329C307.625 200.596 307.931 200.808 308.269 200.953C308.606 201.097 308.968 201.172 309.333 201.172C310.07 201.172 310.778 200.869 311.299 200.329C311.82 199.79 312.113 199.058 312.113 198.295C312.113 197.532 311.82 196.8 311.299 196.261C310.778 195.721 310.07 195.418 309.333 195.418Z" fill="white"/>
</g>
<g filter="url(#filter6_d_8_108)">
<path d="M270.406 158.981C272.618 158.981 274.74 159.89 276.305 161.509C277.869 163.127 278.748 165.322 278.748 167.611C278.748 170.558 277.194 172.971 275.558 174.702C274.74 175.557 273.847 176.333 272.892 177.018L272.497 177.297L272.312 177.424L271.962 177.654L271.651 177.851L271.265 178.083C271.004 178.237 270.707 178.319 270.406 178.319C270.105 178.319 269.809 178.237 269.547 178.083L269.161 177.851L268.679 177.544L268.501 177.424L268.121 177.162C267.091 176.441 266.13 175.617 265.255 174.702C263.618 172.97 262.064 170.558 262.064 167.611C262.064 165.322 262.943 163.127 264.508 161.509C266.072 159.89 268.194 158.981 270.406 158.981ZM270.406 164.734C270.041 164.734 269.679 164.809 269.342 164.953C269.005 165.098 268.698 165.31 268.44 165.577C268.182 165.844 267.977 166.161 267.837 166.51C267.697 166.859 267.626 167.233 267.626 167.611C267.626 167.989 267.697 168.363 267.837 168.712C267.977 169.061 268.182 169.378 268.44 169.645C268.698 169.912 269.005 170.124 269.342 170.269C269.679 170.413 270.041 170.488 270.406 170.488C271.144 170.488 271.851 170.184 272.372 169.645C272.894 169.106 273.187 168.374 273.187 167.611C273.187 166.848 272.894 166.116 272.372 165.577C271.851 165.037 271.144 164.734 270.406 164.734Z" fill="white"/>
</g>
<g filter="url(#filter7_d_8_108)">
<path d="M273.186 166.652C275.399 166.652 277.52 167.561 279.085 169.18C280.649 170.798 281.528 172.993 281.528 175.282C281.528 178.23 279.975 180.642 278.338 182.373C277.52 183.228 276.628 184.004 275.672 184.69L275.277 184.968L275.092 185.095L274.743 185.325L274.431 185.522L274.046 185.754C273.784 185.909 273.488 185.99 273.186 185.99C272.885 185.99 272.589 185.909 272.327 185.754L271.942 185.522L271.46 185.215L271.282 185.095L270.902 184.833C269.871 184.112 268.911 183.288 268.035 182.373C266.398 180.641 264.845 178.23 264.845 175.282C264.845 172.993 265.724 170.798 267.288 169.18C268.852 167.561 270.974 166.652 273.186 166.652ZM273.186 172.405C272.821 172.405 272.46 172.48 272.122 172.624C271.785 172.769 271.478 172.981 271.22 173.248C270.962 173.515 270.757 173.832 270.617 174.181C270.478 174.53 270.406 174.904 270.406 175.282C270.406 175.66 270.478 176.034 270.617 176.383C270.757 176.732 270.962 177.049 271.22 177.316C271.478 177.583 271.785 177.795 272.122 177.94C272.46 178.084 272.821 178.159 273.186 178.159C273.924 178.159 274.631 177.856 275.153 177.316C275.674 176.777 275.967 176.045 275.967 175.282C275.967 174.519 275.674 173.787 275.153 173.248C274.631 172.708 273.924 172.405 273.186 172.405Z" fill="white"/>
</g>
<g filter="url(#filter8_d_8_108)">
<path d="M277.82 161.857C280.033 161.857 282.154 162.767 283.719 164.385C285.283 166.003 286.162 168.199 286.162 170.487C286.162 173.435 284.608 175.848 282.972 177.578C282.154 178.434 281.262 179.209 280.306 179.895L279.911 180.173L279.726 180.301L279.376 180.531L279.065 180.727L278.679 180.959C278.418 181.114 278.122 181.195 277.82 181.195C277.519 181.195 277.223 181.114 276.961 180.959L276.575 180.727L276.093 180.42L275.915 180.301L275.535 180.039C274.505 179.317 273.545 178.493 272.669 177.578C271.032 175.847 269.479 173.435 269.479 170.487C269.479 168.199 270.357 166.003 271.922 164.385C273.486 162.767 275.608 161.857 277.82 161.857ZM277.82 167.611C277.455 167.611 277.093 167.685 276.756 167.83C276.419 167.974 276.112 168.186 275.854 168.453C275.596 168.72 275.391 169.038 275.251 169.387C275.112 169.736 275.04 170.11 275.04 170.487C275.04 170.865 275.112 171.239 275.251 171.588C275.391 171.937 275.596 172.254 275.854 172.521C276.112 172.789 276.419 173 276.756 173.145C277.093 173.29 277.455 173.364 277.82 173.364C278.558 173.364 279.265 173.061 279.786 172.521C280.308 171.982 280.601 171.25 280.601 170.487C280.601 169.724 280.308 168.993 279.786 168.453C279.265 167.914 278.558 167.611 277.82 167.611Z" fill="white"/>
</g>
<g filter="url(#filter9_d_8_108)">
<path d="M307.479 67.8867C309.692 67.8867 311.813 68.7959 313.378 70.4144C314.942 72.0328 315.821 74.2279 315.821 76.5167C315.821 79.4643 314.268 81.8768 312.631 83.6076C311.813 84.463 310.921 85.2385 309.965 85.9242L309.57 86.2023L309.385 86.3298L309.036 86.56L308.724 86.7566L308.339 86.9886C308.077 87.1431 307.781 87.2244 307.479 87.2244C307.178 87.2244 306.882 87.1431 306.62 86.9886L306.235 86.7566L305.753 86.4497L305.575 86.3298L305.195 86.0681C304.164 85.3465 303.204 84.5225 302.328 83.6076C300.691 81.8758 299.138 79.4643 299.138 76.5167C299.138 74.2279 300.017 72.0328 301.581 70.4144C303.145 68.7959 305.267 67.8867 307.479 67.8867ZM307.479 73.64C307.114 73.64 306.753 73.7144 306.415 73.859C306.078 74.0035 305.771 74.2154 305.513 74.4826C305.255 74.7497 305.05 75.0668 304.91 75.4158C304.771 75.7648 304.699 76.1389 304.699 76.5167C304.699 76.8944 304.771 77.2685 304.91 77.6175C305.05 77.9665 305.255 78.2836 305.513 78.5508C305.771 78.8179 306.078 79.0298 306.415 79.1743C306.753 79.3189 307.114 79.3933 307.479 79.3933C308.217 79.3933 308.924 79.0902 309.446 78.5508C309.967 78.0113 310.26 77.2796 310.26 76.5167C310.26 75.7537 309.967 75.022 309.446 74.4826C308.924 73.9431 308.217 73.64 307.479 73.64Z" fill="white"/>
</g>
<g filter="url(#filter10_d_8_108)">
<path d="M267.625 69.8047C269.837 69.8047 271.959 70.7139 273.523 72.3323C275.088 73.9508 275.967 76.1458 275.967 78.4346C275.967 81.3822 274.413 83.7948 272.776 85.5256C271.959 86.3809 271.066 87.1564 270.111 87.8422L269.716 88.1203L269.53 88.2478L269.181 88.478L268.87 88.6745L268.484 88.9066C268.222 89.0611 267.926 89.1424 267.625 89.1424C267.324 89.1424 267.027 89.0611 266.766 88.9066L266.38 88.6745L265.898 88.3677L265.72 88.2478L265.34 87.986C264.309 87.2645 263.349 86.4404 262.473 85.5256C260.837 83.7938 259.283 81.3822 259.283 78.4346C259.283 76.1458 260.162 73.9508 261.726 72.3323C263.291 70.7139 265.413 69.8047 267.625 69.8047ZM267.625 75.558C267.26 75.558 266.898 75.6324 266.561 75.7769C266.223 75.9215 265.917 76.1334 265.659 76.4005C265.401 76.6676 265.196 76.9848 265.056 77.3338C264.916 77.6828 264.844 78.0569 264.844 78.4346C264.844 78.8124 264.916 79.1865 265.056 79.5355C265.196 79.8845 265.401 80.2016 265.659 80.4687C265.917 80.7358 266.223 80.9477 266.561 81.0923C266.898 81.2369 267.26 81.3113 267.625 81.3113C268.362 81.3113 269.07 81.0082 269.591 80.4687C270.112 79.9292 270.405 79.1976 270.405 78.4346C270.405 77.6717 270.112 76.94 269.591 76.4005C269.07 75.8611 268.362 75.558 267.625 75.558Z" fill="white"/>
</g>
<g filter="url(#filter11_d_8_108)">
<path d="M294.504 91.8591C296.716 91.8591 298.838 92.7684 300.402 94.3868C301.967 96.0052 302.845 98.2003 302.845 100.489C302.845 103.437 301.292 105.849 299.655 107.58C298.837 108.435 297.945 109.211 296.99 109.897L296.595 110.175L296.409 110.302L296.06 110.532L295.749 110.729L295.363 110.961C295.101 111.116 294.805 111.197 294.504 111.197C294.202 111.197 293.906 111.116 293.645 110.961L293.259 110.729L292.777 110.422L292.599 110.302L292.219 110.04C291.188 109.319 290.228 108.495 289.352 107.58C287.716 105.848 286.162 103.437 286.162 100.489C286.162 98.2003 287.041 96.0052 288.605 94.3868C290.17 92.7684 292.291 91.8591 294.504 91.8591ZM294.504 97.6124C294.139 97.6124 293.777 97.6868 293.44 97.8314C293.102 97.976 292.796 98.1878 292.538 98.455C292.279 98.7221 292.075 99.0392 291.935 99.3882C291.795 99.7372 291.723 100.111 291.723 100.489C291.723 100.867 291.795 101.241 291.935 101.59C292.075 101.939 292.279 102.256 292.538 102.523C292.796 102.79 293.102 103.002 293.44 103.147C293.777 103.291 294.139 103.366 294.504 103.366C295.241 103.366 295.948 103.063 296.47 102.523C296.991 101.984 297.284 101.252 297.284 100.489C297.284 99.7261 296.991 98.9944 296.47 98.455C295.948 97.9155 295.241 97.6124 294.504 97.6124Z" fill="white"/>
</g>
<g filter="url(#filter12_d_8_108)">
<path d="M315.821 142.68C318.034 142.68 320.155 143.589 321.72 145.207C323.284 146.826 324.163 149.021 324.163 151.31C324.163 154.257 322.609 156.67 320.973 158.401C320.155 159.256 319.262 160.031 318.307 160.717L317.912 160.995L317.727 161.123L317.377 161.353L317.066 161.55L316.68 161.782C316.419 161.936 316.122 162.017 315.821 162.017C315.52 162.017 315.224 161.936 314.962 161.782L314.576 161.55L314.094 161.243L313.916 161.123L313.536 160.861C312.506 160.14 311.545 159.315 310.67 158.401C309.033 156.669 307.479 154.257 307.479 151.31C307.479 149.021 308.358 146.826 309.923 145.207C311.487 143.589 313.609 142.68 315.821 142.68ZM315.821 148.433C315.456 148.433 315.094 148.507 314.757 148.652C314.42 148.797 314.113 149.008 313.855 149.276C313.597 149.543 313.392 149.86 313.252 150.209C313.113 150.558 313.041 150.932 313.041 151.31C313.041 151.687 313.113 152.061 313.252 152.41C313.392 152.759 313.597 153.077 313.855 153.344C314.113 153.611 314.42 153.823 314.757 153.967C315.094 154.112 315.456 154.186 315.821 154.186C316.559 154.186 317.266 153.883 317.787 153.344C318.309 152.804 318.602 152.073 318.602 151.31C318.602 150.547 318.309 149.815 317.787 149.276C317.266 148.736 316.559 148.433 315.821 148.433Z" fill="white"/>
</g>
<g filter="url(#filter13_d_8_108)">
<path d="M256.502 101.448C258.714 101.448 260.836 102.357 262.4 103.976C263.965 105.594 264.843 107.789 264.843 110.078C264.843 113.026 263.29 115.438 261.653 117.169C260.835 118.024 259.943 118.8 258.988 119.486L258.593 119.764L258.407 119.891L258.058 120.121L257.747 120.318L257.361 120.55C257.099 120.704 256.803 120.786 256.502 120.786C256.2 120.786 255.904 120.704 255.643 120.55L255.257 120.318L254.775 120.011L254.597 119.891L254.217 119.629C253.186 118.908 252.226 118.084 251.35 117.169C249.714 115.437 248.16 113.026 248.16 110.078C248.16 107.789 249.039 105.594 250.603 103.976C252.168 102.357 254.289 101.448 256.502 101.448ZM256.502 107.201C256.137 107.201 255.775 107.276 255.438 107.42C255.1 107.565 254.794 107.777 254.536 108.044C254.277 108.311 254.073 108.628 253.933 108.977C253.793 109.326 253.721 109.7 253.721 110.078C253.721 110.456 253.793 110.83 253.933 111.179C254.073 111.528 254.277 111.845 254.536 112.112C254.794 112.379 255.1 112.591 255.438 112.736C255.775 112.88 256.137 112.955 256.502 112.955C257.239 112.955 257.947 112.652 258.468 112.112C258.989 111.573 259.282 110.841 259.282 110.078C259.282 109.315 258.989 108.583 258.468 108.044C257.947 107.504 257.239 107.201 256.502 107.201Z" fill="white"/>
</g>
<g filter="url(#filter14_d_8_108)">
<path d="M208.307 103.366C210.519 103.366 212.641 104.275 214.205 105.894C215.769 107.512 216.648 109.707 216.648 111.996C216.648 114.944 215.095 117.356 213.458 119.087C212.64 119.942 211.748 120.718 210.792 121.403L210.397 121.682L210.212 121.809L209.863 122.039L209.551 122.236L209.166 122.468C208.904 122.622 208.608 122.704 208.307 122.704C208.005 122.704 207.709 122.622 207.447 122.468L207.062 122.236L206.58 121.929L206.402 121.809L206.022 121.547C204.991 120.826 204.031 120.002 203.155 119.087C201.518 117.355 199.965 114.944 199.965 111.996C199.965 109.707 200.844 107.512 202.408 105.894C203.972 104.275 206.094 103.366 208.307 103.366ZM208.307 109.119C207.941 109.119 207.58 109.194 207.242 109.338C206.905 109.483 206.599 109.695 206.34 109.962C206.082 110.229 205.877 110.546 205.738 110.895C205.598 111.244 205.526 111.618 205.526 111.996C205.526 112.374 205.598 112.748 205.738 113.097C205.877 113.446 206.082 113.763 206.34 114.03C206.599 114.297 206.905 114.509 207.242 114.654C207.58 114.798 207.941 114.873 208.307 114.873C209.044 114.873 209.751 114.569 210.273 114.03C210.794 113.491 211.087 112.759 211.087 111.996C211.087 111.233 210.794 110.501 210.273 109.962C209.751 109.422 209.044 109.119 208.307 109.119Z" fill="white"/>
</g>
<g filter="url(#filter15_d_8_108)">
<path d="M186.988 166.652C189.2 166.652 191.322 167.561 192.887 169.18C194.451 170.798 195.33 172.993 195.33 175.282C195.33 178.23 193.776 180.642 192.14 182.373C191.322 183.228 190.429 184.004 189.474 184.69L189.079 184.968L188.894 185.095L188.544 185.325L188.233 185.522L187.847 185.754C187.586 185.909 187.289 185.99 186.988 185.99C186.687 185.99 186.391 185.909 186.129 185.754L185.743 185.522L185.261 185.215L185.083 185.095L184.703 184.833C183.673 184.112 182.712 183.288 181.837 182.373C180.2 180.641 178.646 178.23 178.646 175.282C178.646 172.993 179.525 170.798 181.09 169.18C182.654 167.561 184.776 166.652 186.988 166.652ZM186.988 172.405C186.623 172.405 186.261 172.48 185.924 172.624C185.587 172.769 185.28 172.981 185.022 173.248C184.764 173.515 184.559 173.832 184.419 174.181C184.28 174.53 184.208 174.904 184.208 175.282C184.208 175.66 184.28 176.034 184.419 176.383C184.559 176.732 184.764 177.049 185.022 177.316C185.28 177.583 185.587 177.795 185.924 177.94C186.261 178.084 186.623 178.159 186.988 178.159C187.726 178.159 188.433 177.856 188.954 177.316C189.476 176.777 189.769 176.045 189.769 175.282C189.769 174.519 189.476 173.787 188.954 173.248C188.433 172.708 187.726 172.405 186.988 172.405Z" fill="white"/>
</g>
<g filter="url(#filter16_d_8_108)">
<path d="M199.965 236.649C202.177 236.649 204.299 237.559 205.863 239.177C207.428 240.795 208.306 242.991 208.306 245.279C208.306 248.227 206.753 250.639 205.116 252.37C204.298 253.226 203.406 254.001 202.451 254.687L202.056 254.965L201.87 255.093L201.521 255.323L201.209 255.519L200.824 255.751C200.562 255.906 200.266 255.987 199.965 255.987C199.663 255.987 199.367 255.906 199.106 255.751L198.72 255.519L198.238 255.212L198.06 255.093L197.68 254.831C196.649 254.109 195.689 253.285 194.813 252.37C193.176 250.639 191.623 248.227 191.623 245.279C191.623 242.991 192.502 240.795 194.066 239.177C195.631 237.559 197.752 236.649 199.965 236.649ZM199.965 242.403C199.6 242.403 199.238 242.477 198.901 242.622C198.563 242.766 198.257 242.978 197.999 243.245C197.74 243.512 197.536 243.829 197.396 244.179C197.256 244.528 197.184 244.902 197.184 245.279C197.184 245.657 197.256 246.031 197.396 246.38C197.536 246.729 197.74 247.046 197.999 247.313C198.257 247.581 198.563 247.792 198.901 247.937C199.238 248.082 199.6 248.156 199.965 248.156C200.702 248.156 201.409 247.853 201.931 247.313C202.452 246.774 202.745 246.042 202.745 245.279C202.745 244.516 202.452 243.785 201.931 243.245C201.409 242.706 200.702 242.403 199.965 242.403Z" fill="white"/>
</g>
<g filter="url(#filter17_d_8_108)">
<path d="M189.769 236.649C191.982 236.649 194.103 237.559 195.668 239.177C197.232 240.795 198.111 242.991 198.111 245.279C198.111 248.227 196.558 250.639 194.921 252.37C194.103 253.226 193.211 254.001 192.255 254.687L191.86 254.965L191.675 255.093L191.326 255.323L191.014 255.519L190.629 255.751C190.367 255.906 190.071 255.987 189.769 255.987C189.468 255.987 189.172 255.906 188.91 255.751L188.525 255.519L188.043 255.212L187.865 255.093L187.485 254.831C186.454 254.109 185.494 253.285 184.618 252.37C182.981 250.639 181.428 248.227 181.428 245.279C181.428 242.991 182.307 240.795 183.871 239.177C185.435 237.559 187.557 236.649 189.769 236.649ZM189.769 242.403C189.404 242.403 189.043 242.477 188.705 242.622C188.368 242.766 188.061 242.978 187.803 243.245C187.545 243.512 187.34 243.829 187.2 244.179C187.061 244.528 186.989 244.902 186.989 245.279C186.989 245.657 187.061 246.031 187.2 246.38C187.34 246.729 187.545 247.046 187.803 247.313C188.061 247.581 188.368 247.792 188.705 247.937C189.043 248.082 189.404 248.156 189.769 248.156C190.507 248.156 191.214 247.853 191.736 247.313C192.257 246.774 192.55 246.042 192.55 245.279C192.55 244.516 192.257 243.785 191.736 243.245C191.214 242.706 190.507 242.403 189.769 242.403Z" fill="white"/>
</g>
<g filter="url(#filter18_d_8_108)">
<path d="M186.988 224.185C189.2 224.185 191.322 225.094 192.887 226.712C194.451 228.331 195.33 230.526 195.33 232.815C195.33 235.762 193.776 238.175 192.14 239.906C191.322 240.761 190.429 241.537 189.474 242.222L189.079 242.5L188.894 242.628L188.544 242.858L188.233 243.055L187.847 243.287C187.586 243.441 187.289 243.523 186.988 243.523C186.687 243.523 186.391 243.441 186.129 243.287L185.743 243.055L185.261 242.748L185.083 242.628L184.703 242.366C183.673 241.645 182.712 240.821 181.837 239.906C180.2 238.174 178.646 235.762 178.646 232.815C178.646 230.526 179.525 228.331 181.09 226.712C182.654 225.094 184.776 224.185 186.988 224.185ZM186.988 229.938C186.623 229.938 186.261 230.013 185.924 230.157C185.587 230.302 185.28 230.514 185.022 230.781C184.764 231.048 184.559 231.365 184.419 231.714C184.28 232.063 184.208 232.437 184.208 232.815C184.208 233.193 184.28 233.567 184.419 233.916C184.559 234.265 184.764 234.582 185.022 234.849C185.28 235.116 185.587 235.328 185.924 235.472C186.261 235.617 186.623 235.691 186.988 235.691C187.726 235.691 188.433 235.388 188.954 234.849C189.476 234.309 189.769 233.578 189.769 232.815C189.769 232.052 189.476 231.32 188.954 230.781C188.433 230.241 187.726 229.938 186.988 229.938Z" fill="white"/>
</g>
<g filter="url(#filter19_d_8_108)">
<path d="M206.451 212.678C208.663 212.678 210.785 213.587 212.349 215.206C213.914 216.824 214.793 219.019 214.793 221.308C214.793 224.256 213.239 226.668 211.602 228.399C210.785 229.254 209.892 230.03 208.937 230.716L208.542 230.994L208.357 231.121L208.007 231.351L207.696 231.548L207.31 231.78C207.049 231.935 206.752 232.016 206.451 232.016C206.15 232.016 205.854 231.935 205.592 231.78L205.206 231.548L204.724 231.241L204.546 231.121L204.166 230.86C203.136 230.138 202.175 229.314 201.3 228.399C199.663 226.667 198.109 224.256 198.109 221.308C198.109 219.019 198.988 216.824 200.553 215.206C202.117 213.587 204.239 212.678 206.451 212.678ZM206.451 218.432C206.086 218.432 205.724 218.506 205.387 218.65C205.05 218.795 204.743 219.007 204.485 219.274C204.227 219.541 204.022 219.858 203.882 220.207C203.742 220.556 203.67 220.93 203.67 221.308C203.67 221.686 203.742 222.06 203.882 222.409C204.022 222.758 204.227 223.075 204.485 223.342C204.743 223.609 205.05 223.821 205.387 223.966C205.724 224.11 206.086 224.185 206.451 224.185C207.188 224.185 207.896 223.882 208.417 223.342C208.939 222.803 209.232 222.071 209.232 221.308C209.232 220.545 208.939 219.814 208.417 219.274C207.896 218.735 207.188 218.432 206.451 218.432Z" fill="white"/>
</g>
<g filter="url(#filter20_d_8_108)">
<path d="M151.767 170.488C153.98 170.488 156.102 171.397 157.666 173.015C159.23 174.634 160.109 176.829 160.109 179.118C160.109 182.065 158.556 184.478 156.919 186.209C156.101 187.064 155.209 187.84 154.253 188.525L153.858 188.803L153.673 188.931L153.324 189.161L153.012 189.358L152.627 189.59C152.365 189.744 152.069 189.826 151.767 189.826C151.466 189.826 151.17 189.744 150.908 189.59L150.523 189.358L150.041 189.051L149.863 188.931L149.483 188.669C148.452 187.948 147.492 187.124 146.616 186.209C144.979 184.477 143.426 182.065 143.426 179.118C143.426 176.829 144.305 174.634 145.869 173.015C147.433 171.397 149.555 170.488 151.767 170.488ZM151.767 176.241C151.402 176.241 151.041 176.315 150.703 176.46C150.366 176.605 150.059 176.817 149.801 177.084C149.543 177.351 149.338 177.668 149.199 178.017C149.059 178.366 148.987 178.74 148.987 179.118C148.987 179.495 149.059 179.87 149.199 180.219C149.338 180.568 149.543 180.885 149.801 181.152C150.059 181.419 150.366 181.631 150.703 181.775C151.041 181.92 151.402 181.994 151.767 181.994C152.505 181.994 153.212 181.691 153.734 181.152C154.255 180.612 154.548 179.881 154.548 179.118C154.548 178.355 154.255 177.623 153.734 177.084C153.212 176.544 152.505 176.241 151.767 176.241Z" fill="white"/>
</g>
<g filter="url(#filter21_d_8_108)">
<path d="M80.4012 227.062C82.6136 227.062 84.7353 227.971 86.2997 229.589C87.864 231.208 88.7429 233.403 88.7429 235.691C88.7429 238.639 87.1895 241.052 85.5527 242.782C84.7349 243.638 83.8426 244.413 82.887 245.099L82.4922 245.377L82.3068 245.505L81.9574 245.735L81.646 245.931L81.2604 246.163C80.9987 246.318 80.7026 246.399 80.4012 246.399C80.0999 246.399 79.8038 246.318 79.542 246.163L79.1565 245.931L78.6745 245.625L78.4966 245.505L78.1165 245.243C77.0857 244.521 76.1256 243.697 75.2498 242.782C73.613 241.051 72.0596 238.639 72.0596 235.691C72.0596 233.403 72.9384 231.208 74.5028 229.589C76.0672 227.971 78.1889 227.062 80.4012 227.062ZM80.4012 232.815C80.0361 232.815 79.6745 232.889 79.3372 233.034C78.9998 233.178 78.6933 233.39 78.4351 233.657C78.1769 233.924 77.9721 234.242 77.8323 234.591C77.6926 234.94 77.6207 235.314 77.6207 235.691C77.6207 236.069 77.6926 236.443 77.8323 236.792C77.9721 237.141 78.1769 237.458 78.4351 237.726C78.6933 237.993 78.9998 238.205 79.3372 238.349C79.6745 238.494 80.0361 238.568 80.4012 238.568C81.1387 238.568 81.8459 238.265 82.3674 237.726C82.8888 237.186 83.1818 236.454 83.1818 235.691C83.1818 234.929 82.8888 234.197 82.3674 233.657C81.8459 233.118 81.1387 232.815 80.4012 232.815Z" fill="white"/>
</g>
<g filter="url(#filter22_d_8_108)">
<path d="M63.7176 251.992C65.93 251.992 68.0517 252.902 69.6161 254.52C71.1804 256.139 72.0593 258.334 72.0593 260.622C72.0593 263.57 70.5059 265.983 68.8691 267.713C68.0513 268.569 67.159 269.344 66.2035 270.03L65.8086 270.308L65.6232 270.436L65.2738 270.666L64.9624 270.862L64.5768 271.094C64.3151 271.249 64.019 271.33 63.7176 271.33C63.4163 271.33 63.1202 271.249 62.8584 271.094L62.4729 270.862L61.9909 270.555L61.813 270.436L61.433 270.174C60.4021 269.452 59.442 268.628 58.5662 267.713C56.9294 265.982 55.376 263.57 55.376 260.622C55.376 258.334 56.2548 256.139 57.8192 254.52C59.3836 252.902 61.5053 251.992 63.7176 251.992ZM63.7176 257.746C63.3525 257.746 62.9909 257.82 62.6536 257.965C62.3162 258.109 62.0097 258.321 61.7515 258.588C61.4933 258.855 61.2885 259.173 61.1487 259.522C61.009 259.871 60.9371 260.245 60.9371 260.622C60.9371 261 61.009 261.374 61.1487 261.723C61.2885 262.072 61.4933 262.389 61.7515 262.656C62.0097 262.924 62.3162 263.135 62.6536 263.28C62.9909 263.425 63.3525 263.499 63.7176 263.499C64.4551 263.499 65.1623 263.196 65.6838 262.656C66.2052 262.117 66.4982 261.385 66.4982 260.622C66.4982 259.859 66.2052 259.128 65.6838 258.588C65.1623 258.049 64.4551 257.746 63.7176 257.746Z" fill="white"/>
</g>
<g filter="url(#filter23_d_8_108)">
<path d="M55.3758 203.089C57.5882 203.089 59.7099 203.999 61.2743 205.617C62.8387 207.235 63.7175 209.43 63.7175 211.719C63.7175 214.667 62.1641 217.079 60.5273 218.81C59.7095 219.666 58.8172 220.441 57.8617 221.127L57.4668 221.405L57.2814 221.532L56.932 221.763L56.6206 221.959L56.235 222.191C55.9733 222.346 55.6772 222.427 55.3758 222.427C55.0745 222.427 54.7784 222.346 54.5167 222.191L54.1311 221.959L53.6491 221.652L53.4712 221.532L53.0912 221.271C52.0603 220.549 51.1002 219.725 50.2244 218.81C48.5876 217.078 47.0342 214.667 47.0342 211.719C47.0342 209.43 47.913 207.235 49.4774 205.617C51.0418 203.999 53.1635 203.089 55.3758 203.089ZM55.3758 208.843C55.0107 208.843 54.6491 208.917 54.3118 209.062C53.9744 209.206 53.6679 209.418 53.4097 209.685C53.1515 209.952 52.9467 210.269 52.8069 210.618C52.6672 210.967 52.5953 211.342 52.5953 211.719C52.5953 212.097 52.6672 212.471 52.8069 212.82C52.9467 213.169 53.1515 213.486 53.4097 213.753C53.6679 214.021 53.9744 214.232 54.3118 214.377C54.6491 214.522 55.0107 214.596 55.3758 214.596C56.1133 214.596 56.8205 214.293 57.342 213.753C57.8634 213.214 58.1564 212.482 58.1564 211.719C58.1564 210.956 57.8634 210.225 57.342 209.685C56.8205 209.146 56.1133 208.843 55.3758 208.843Z" fill="white"/>
</g>
<g filter="url(#filter24_d_8_108)">
<path d="M72.0585 205.007C74.2708 205.007 76.3925 205.916 77.9569 207.534C79.5213 209.153 80.4001 211.348 80.4001 213.637C80.4001 216.584 78.8467 218.997 77.2099 220.728C76.3921 221.583 75.4998 222.359 74.5443 223.044L74.1494 223.322L73.9641 223.45L73.6146 223.68L73.3032 223.877L72.9177 224.109C72.6559 224.263 72.3598 224.345 72.0585 224.345C71.7571 224.345 71.461 224.263 71.1993 224.109L70.8137 223.877L70.3317 223.57L70.1538 223.45L69.7738 223.188C68.743 222.467 67.7828 221.643 66.907 220.728C65.2702 218.996 63.7168 216.584 63.7168 213.637C63.7168 211.348 64.5956 209.153 66.16 207.534C67.7244 205.916 69.8461 205.007 72.0585 205.007ZM72.0585 210.76C71.6933 210.76 71.3317 210.835 70.9944 210.979C70.657 211.124 70.3505 211.336 70.0923 211.603C69.8341 211.87 69.6293 212.187 69.4896 212.536C69.3498 212.885 69.2779 213.259 69.2779 213.637C69.2779 214.015 69.3498 214.389 69.4896 214.738C69.6293 215.087 69.8341 215.404 70.0923 215.671C70.3505 215.938 70.657 216.15 70.9944 216.294C71.3317 216.439 71.6933 216.513 72.0585 216.513C72.7959 216.513 73.5032 216.21 74.0246 215.671C74.5461 215.131 74.839 214.4 74.839 213.637C74.839 212.874 74.5461 212.142 74.0246 211.603C73.5032 211.063 72.7959 210.76 72.0585 210.76Z" fill="white"/>
</g>
<g filter="url(#filter25_d_8_108)">
<path d="M358.456 232.815C360.668 232.815 362.79 233.724 364.354 235.343C365.919 236.961 366.798 239.156 366.798 241.445C366.798 244.392 365.244 246.805 363.607 248.536C362.79 249.391 361.897 250.167 360.942 250.852L360.547 251.131L360.362 251.258L360.012 251.488L359.701 251.685L359.315 251.917C359.053 252.071 358.757 252.153 358.456 252.153C358.155 252.153 357.858 252.071 357.597 251.917L357.211 251.685L356.729 251.378L356.551 251.258L356.171 250.996C355.14 250.275 354.18 249.451 353.304 248.536C351.668 246.804 350.114 244.392 350.114 241.445C350.114 239.156 350.993 236.961 352.557 235.343C354.122 233.724 356.244 232.815 358.456 232.815ZM358.456 238.568C358.091 238.568 357.729 238.643 357.392 238.787C357.054 238.932 356.748 239.144 356.49 239.411C356.232 239.678 356.027 239.995 355.887 240.344C355.747 240.693 355.675 241.067 355.675 241.445C355.675 241.823 355.747 242.197 355.887 242.546C356.027 242.895 356.232 243.212 356.49 243.479C356.748 243.746 357.054 243.958 357.392 244.103C357.729 244.247 358.091 244.322 358.456 244.322C359.193 244.322 359.901 244.018 360.422 243.479C360.944 242.939 361.236 242.208 361.236 241.445C361.236 240.682 360.944 239.95 360.422 239.411C359.901 238.871 359.193 238.568 358.456 238.568Z" fill="white"/>
</g>
<g filter="url(#filter26_d_8_108)">
<path d="M414.994 61.1748C417.206 61.1748 419.328 62.084 420.892 63.7025C422.457 65.3209 423.336 67.5159 423.336 69.8047C423.336 72.7523 421.782 75.1649 420.145 76.8957C419.328 77.7511 418.435 78.5266 417.48 79.2123L417.085 79.4904L416.9 79.6179L416.55 79.8481L416.239 80.0446L415.853 80.2767C415.591 80.4312 415.295 80.5125 414.994 80.5125C414.693 80.5125 414.397 80.4312 414.135 80.2767L413.749 80.0446L413.267 79.7378L413.089 79.6179L412.709 79.3562C411.679 78.6346 410.718 77.8105 409.843 76.8957C408.206 75.1639 406.652 72.7523 406.652 69.8047C406.652 67.5159 407.531 65.3209 409.096 63.7025C410.66 62.084 412.782 61.1748 414.994 61.1748ZM414.994 66.9281C414.629 66.9281 414.267 67.0025 413.93 67.1471C413.593 67.2916 413.286 67.5035 413.028 67.7706C412.77 68.0378 412.565 68.3549 412.425 68.7039C412.285 69.0529 412.213 69.427 412.213 69.8047C412.213 70.1825 412.285 70.5566 412.425 70.9056C412.565 71.2546 412.77 71.5717 413.028 71.8388C413.286 72.106 413.593 72.3178 413.93 72.4624C414.267 72.607 414.629 72.6814 414.994 72.6814C415.731 72.6814 416.439 72.3783 416.96 71.8388C417.482 71.2994 417.775 70.5677 417.775 69.8047C417.775 69.0418 417.482 68.3101 416.96 67.7706C416.439 67.2312 415.731 66.9281 414.994 66.9281Z" fill="white"/>
</g>
<g filter="url(#filter27_d_8_108)">
<path d="M20.1551 124.461C22.3675 124.461 24.4892 125.37 26.0536 126.989C27.6179 128.607 28.4968 130.802 28.4968 133.091C28.4968 136.039 26.9434 138.451 25.3066 140.182C24.4888 141.037 23.5965 141.813 22.641 142.499L22.2461 142.777L22.0607 142.904L21.7113 143.134L21.3999 143.331L21.0143 143.563C20.7526 143.718 20.4565 143.799 20.1551 143.799C19.8538 143.799 19.5577 143.718 19.2959 143.563L18.9104 143.331L18.4284 143.024L18.2505 142.904L17.8705 142.643C16.8396 141.921 15.8795 141.097 15.0037 140.182C13.3669 138.45 11.8135 136.039 11.8135 133.091C11.8135 130.802 12.6923 128.607 14.2567 126.989C15.8211 125.37 17.9428 124.461 20.1551 124.461ZM20.1551 130.214C19.79 130.214 19.4284 130.289 19.0911 130.433C18.7537 130.578 18.4472 130.79 18.189 131.057C17.9308 131.324 17.726 131.641 17.5862 131.99C17.4465 132.339 17.3746 132.713 17.3746 133.091C17.3746 133.469 17.4465 133.843 17.5862 134.192C17.726 134.541 17.9308 134.858 18.189 135.125C18.4472 135.392 18.7537 135.604 19.0911 135.749C19.4284 135.893 19.79 135.968 20.1551 135.968C20.8926 135.968 21.5998 135.665 22.1213 135.125C22.6427 134.586 22.9357 133.854 22.9357 133.091C22.9357 132.328 22.6427 131.596 22.1213 131.057C21.5998 130.518 20.8926 130.214 20.1551 130.214Z" fill="white"/>
</g>
<g filter="url(#filter28_d_8_108)">
<path d="M286.162 155.145C288.374 155.145 290.496 156.054 292.06 157.673C293.625 159.291 294.504 161.486 294.504 163.775C294.504 166.723 292.95 169.135 291.313 170.866C290.496 171.722 289.603 172.497 288.648 173.183L288.253 173.461L288.068 173.588L287.718 173.819L287.407 174.015L287.021 174.247C286.759 174.402 286.463 174.483 286.162 174.483C285.861 174.483 285.564 174.402 285.303 174.247L284.917 174.015L284.435 173.708L284.257 173.588L283.877 173.327C282.846 172.605 281.886 171.781 281.011 170.866C279.374 169.134 277.82 166.723 277.82 163.775C277.82 161.486 278.699 159.291 280.264 157.673C281.828 156.054 283.95 155.145 286.162 155.145ZM286.162 160.899C285.797 160.899 285.435 160.973 285.098 161.118C284.761 161.262 284.454 161.474 284.196 161.741C283.938 162.008 283.733 162.325 283.593 162.674C283.453 163.023 283.381 163.397 283.381 163.775C283.381 164.153 283.453 164.527 283.593 164.876C283.733 165.225 283.938 165.542 284.196 165.809C284.454 166.076 284.761 166.288 285.098 166.433C285.435 166.577 285.797 166.652 286.162 166.652C286.899 166.652 287.607 166.349 288.128 165.809C288.65 165.27 288.943 164.538 288.943 163.775C288.943 163.012 288.65 162.281 288.128 161.741C287.607 161.202 286.899 160.899 286.162 160.899Z" fill="white"/>
</g>
<g filter="url(#filter29_d_8_108)">
<path d="M278.747 178.158C280.959 178.158 283.081 179.068 284.645 180.686C286.21 182.305 287.089 184.5 287.089 186.788C287.089 189.736 285.535 192.149 283.898 193.879C283.081 194.735 282.188 195.51 281.233 196.196L280.838 196.474L280.653 196.602L280.303 196.832L279.992 197.028L279.606 197.26C279.344 197.415 279.048 197.496 278.747 197.496C278.446 197.496 278.149 197.415 277.888 197.26L277.502 197.028L277.02 196.721L276.842 196.602L276.462 196.34C275.431 195.618 274.471 194.794 273.595 193.879C271.959 192.148 270.405 189.736 270.405 186.788C270.405 184.5 271.284 182.305 272.848 180.686C274.413 179.068 276.535 178.158 278.747 178.158ZM278.747 183.912C278.382 183.912 278.02 183.986 277.683 184.131C277.346 184.275 277.039 184.487 276.781 184.754C276.523 185.021 276.318 185.339 276.178 185.688C276.038 186.037 275.966 186.411 275.966 186.788C275.966 187.166 276.038 187.54 276.178 187.889C276.318 188.238 276.523 188.555 276.781 188.822C277.039 189.09 277.346 189.301 277.683 189.446C278.02 189.591 278.382 189.665 278.747 189.665C279.484 189.665 280.192 189.362 280.713 188.822C281.235 188.283 281.527 187.551 281.527 186.788C281.527 186.025 281.235 185.294 280.713 184.754C280.192 184.215 279.484 183.912 278.747 183.912Z" fill="white"/>
</g>
<defs>
<filter id="filter0_d_8_108" x="0.821315" y="61.1748" width="21.9843" height="25.6437" filterUnits="userSpaceOnUse" color-interpolation-filters="sRGB">
<feFlood flood-opacity="0" result="BackgroundImageFix"/>
<feColorMatrix in="SourceAlpha" type="matrix" values="0 0 0 0 0 0 0 0 0 0 0 0 0 0 0 0 0 0 127 0" result="hardAlpha"/>
<feOffset dy="3.65568"/>
<feGaussianBlur stdDeviation="1.32518"/>
<feComposite in2="hardAlpha" operator="out"/>
<feColorMatrix type="matrix" values="0 0 0 0 0 0 0 0 0 0 0 0 0 0 0 0 0 0 0.44 0"/>
<feBlend mode="normal" in2="BackgroundImageFix" result="effect1_dropShadow_8_108"/>
<feBlend mode="normal" in="SourceGraphic" in2="effect1_dropShadow_8_108" result="shape"/>
</filter>
<filter id="filter1_d_8_108" x="94.4336" y="39.1211" width="21.9843" height="25.6437" filterUnits="userSpaceOnUse" color-interpolation-filters="sRGB">
<feFlood flood-opacity="0" result="BackgroundImageFix"/>
<feColorMatrix in="SourceAlpha" type="matrix" values="0 0 0 0 0 0 0 0 0 0 0 0 0 0 0 0 0 0 127 0" result="hardAlpha"/>
<feOffset dy="3.65568"/>
<feGaussianBlur stdDeviation="1.32518"/>
<feComposite in2="hardAlpha" operator="out"/>
<feColorMatrix type="matrix" values="0 0 0 0 0 0 0 0 0 0 0 0 0 0 0 0 0 0 0.44 0"/>
<feBlend mode="normal" in2="BackgroundImageFix" result="effect1_dropShadow_8_108"/>
<feBlend mode="normal" in="SourceGraphic" in2="effect1_dropShadow_8_108" result="shape"/>
</filter>
<filter id="filter2_d_8_108" x="86.0918" y="0.765137" width="21.9843" height="25.6437" filterUnits="userSpaceOnUse" color-interpolation-filters="sRGB">
<feFlood flood-opacity="0" result="BackgroundImageFix"/>
<feColorMatrix in="SourceAlpha" type="matrix" values="0 0 0 0 0 0 0 0 0 0 0 0 0 0 0 0 0 0 127 0" result="hardAlpha"/>
<feOffset dy="3.65568"/>
<feGaussianBlur stdDeviation="1.32518"/>
<feComposite in2="hardAlpha" operator="out"/>
<feColorMatrix type="matrix" values="0 0 0 0 0 0 0 0 0 0 0 0 0 0 0 0 0 0 0.44 0"/>
<feBlend mode="normal" in2="BackgroundImageFix" result="effect1_dropShadow_8_108"/>
<feBlend mode="normal" in="SourceGraphic" in2="effect1_dropShadow_8_108" result="shape"/>
</filter>
<filter id="filter3_d_8_108" x="271.462" y="154.187" width="21.9843" height="25.6437" filterUnits="userSpaceOnUse" color-interpolation-filters="sRGB">
<feFlood flood-opacity="0" result="BackgroundImageFix"/>
<feColorMatrix in="SourceAlpha" type="matrix" values="0 0 0 0 0 0 0 0 0 0 0 0 0 0 0 0 0 0 127 0" result="hardAlpha"/>
<feOffset dy="3.65568"/>
<feGaussianBlur stdDeviation="1.32518"/>
<feComposite in2="hardAlpha" operator="out"/>
<feColorMatrix type="matrix" values="0 0 0 0 0 0 0 0 0 0 0 0 0 0 0 0 0 0 0.44 0"/>
<feBlend mode="normal" in2="BackgroundImageFix" result="effect1_dropShadow_8_108"/>
<feBlend mode="normal" in="SourceGraphic" in2="effect1_dropShadow_8_108" result="shape"/>
</filter>
<filter id="filter4_d_8_108" x="266.828" y="154.187" width="21.9843" height="25.6437" filterUnits="userSpaceOnUse" color-interpolation-filters="sRGB">
<feFlood flood-opacity="0" result="BackgroundImageFix"/>
<feColorMatrix in="SourceAlpha" type="matrix" values="0 0 0 0 0 0 0 0 0 0 0 0 0 0 0 0 0 0 127 0" result="hardAlpha"/>
<feOffset dy="3.65568"/>
<feGaussianBlur stdDeviation="1.32518"/>
<feComposite in2="hardAlpha" operator="out"/>
<feColorMatrix type="matrix" values="0 0 0 0 0 0 0 0 0 0 0 0 0 0 0 0 0 0 0.44 0"/>
<feBlend mode="normal" in2="BackgroundImageFix" result="effect1_dropShadow_8_108"/>
<feBlend mode="normal" in="SourceGraphic" in2="effect1_dropShadow_8_108" result="shape"/>
</filter>
<filter id="filter5_d_8_108" x="298.341" y="189.665" width="21.9843" height="25.6437" filterUnits="userSpaceOnUse" color-interpolation-filters="sRGB">
<feFlood flood-opacity="0" result="BackgroundImageFix"/>
<feColorMatrix in="SourceAlpha" type="matrix" values="0 0 0 0 0 0 0 0 0 0 0 0 0 0 0 0 0 0 127 0" result="hardAlpha"/>
<feOffset dy="3.65568"/>
<feGaussianBlur stdDeviation="1.32518"/>
<feComposite in2="hardAlpha" operator="out"/>
<feColorMatrix type="matrix" values="0 0 0 0 0 0 0 0 0 0 0 0 0 0 0 0 0 0 0.44 0"/>
<feBlend mode="normal" in2="BackgroundImageFix" result="effect1_dropShadow_8_108"/>
<feBlend mode="normal" in="SourceGraphic" in2="effect1_dropShadow_8_108" result="shape"/>
</filter>
<filter id="filter6_d_8_108" x="259.414" y="158.981" width="21.9843" height="25.6437" filterUnits="userSpaceOnUse" color-interpolation-filters="sRGB">
<feFlood flood-opacity="0" result="BackgroundImageFix"/>
<feColorMatrix in="SourceAlpha" type="matrix" values="0 0 0 0 0 0 0 0 0 0 0 0 0 0 0 0 0 0 127 0" result="hardAlpha"/>
<feOffset dy="3.65568"/>
<feGaussianBlur stdDeviation="1.32518"/>
<feComposite in2="hardAlpha" operator="out"/>
<feColorMatrix type="matrix" values="0 0 0 0 0 0 0 0 0 0 0 0 0 0 0 0 0 0 0.44 0"/>
<feBlend mode="normal" in2="BackgroundImageFix" result="effect1_dropShadow_8_108"/>
<feBlend mode="normal" in="SourceGraphic" in2="effect1_dropShadow_8_108" result="shape"/>
</filter>
<filter id="filter7_d_8_108" x="262.194" y="166.652" width="21.9843" height="25.6437" filterUnits="userSpaceOnUse" color-interpolation-filters="sRGB">
<feFlood flood-opacity="0" result="BackgroundImageFix"/>
<feColorMatrix in="SourceAlpha" type="matrix" values="0 0 0 0 0 0 0 0 0 0 0 0 0 0 0 0 0 0 127 0" result="hardAlpha"/>
<feOffset dy="3.65568"/>
<feGaussianBlur stdDeviation="1.32518"/>
<feComposite in2="hardAlpha" operator="out"/>
<feColorMatrix type="matrix" values="0 0 0 0 0 0 0 0 0 0 0 0 0 0 0 0 0 0 0.44 0"/>
<feBlend mode="normal" in2="BackgroundImageFix" result="effect1_dropShadow_8_108"/>
<feBlend mode="normal" in="SourceGraphic" in2="effect1_dropShadow_8_108" result="shape"/>
</filter>
<filter id="filter8_d_8_108" x="266.828" y="161.857" width="21.9843" height="25.6437" filterUnits="userSpaceOnUse" color-interpolation-filters="sRGB">
<feFlood flood-opacity="0" result="BackgroundImageFix"/>
<feColorMatrix in="SourceAlpha" type="matrix" values="0 0 0 0 0 0 0 0 0 0 0 0 0 0 0 0 0 0 127 0" result="hardAlpha"/>
<feOffset dy="3.65568"/>
<feGaussianBlur stdDeviation="1.32518"/>
<feComposite in2="hardAlpha" operator="out"/>
<feColorMatrix type="matrix" values="0 0 0 0 0 0 0 0 0 0 0 0 0 0 0 0 0 0 0.44 0"/>
<feBlend mode="normal" in2="BackgroundImageFix" result="effect1_dropShadow_8_108"/>
<feBlend mode="normal" in="SourceGraphic" in2="effect1_dropShadow_8_108" result="shape"/>
</filter>
<filter id="filter9_d_8_108" x="296.487" y="67.8867" width="21.9843" height="25.6437" filterUnits="userSpaceOnUse" color-interpolation-filters="sRGB">
<feFlood flood-opacity="0" result="BackgroundImageFix"/>
<feColorMatrix in="SourceAlpha" type="matrix" values="0 0 0 0 0 0 0 0 0 0 0 0 0 0 0 0 0 0 127 0" result="hardAlpha"/>
<feOffset dy="3.65568"/>
<feGaussianBlur stdDeviation="1.32518"/>
<feComposite in2="hardAlpha" operator="out"/>
<feColorMatrix type="matrix" values="0 0 0 0 0 0 0 0 0 0 0 0 0 0 0 0 0 0 0.44 0"/>
<feBlend mode="normal" in2="BackgroundImageFix" result="effect1_dropShadow_8_108"/>
<feBlend mode="normal" in="SourceGraphic" in2="effect1_dropShadow_8_108" result="shape"/>
</filter>
<filter id="filter10_d_8_108" x="256.633" y="69.8047" width="21.9843" height="25.6437" filterUnits="userSpaceOnUse" color-interpolation-filters="sRGB">
<feFlood flood-opacity="0" result="BackgroundImageFix"/>
<feColorMatrix in="SourceAlpha" type="matrix" values="0 0 0 0 0 0 0 0 0 0 0 0 0 0 0 0 0 0 127 0" result="hardAlpha"/>
<feOffset dy="3.65568"/>
<feGaussianBlur stdDeviation="1.32518"/>
<feComposite in2="hardAlpha" operator="out"/>
<feColorMatrix type="matrix" values="0 0 0 0 0 0 0 0 0 0 0 0 0 0 0 0 0 0 0.44 0"/>
<feBlend mode="normal" in2="BackgroundImageFix" result="effect1_dropShadow_8_108"/>
<feBlend mode="normal" in="SourceGraphic" in2="effect1_dropShadow_8_108" result="shape"/>
</filter>
<filter id="filter11_d_8_108" x="283.512" y="91.8591" width="21.9843" height="25.6437" filterUnits="userSpaceOnUse" color-interpolation-filters="sRGB">
<feFlood flood-opacity="0" result="BackgroundImageFix"/>
<feColorMatrix in="SourceAlpha" type="matrix" values="0 0 0 0 0 0 0 0 0 0 0 0 0 0 0 0 0 0 127 0" result="hardAlpha"/>
<feOffset dy="3.65568"/>
<feGaussianBlur stdDeviation="1.32518"/>
<feComposite in2="hardAlpha" operator="out"/>
<feColorMatrix type="matrix" values="0 0 0 0 0 0 0 0 0 0 0 0 0 0 0 0 0 0 0.44 0"/>
<feBlend mode="normal" in2="BackgroundImageFix" result="effect1_dropShadow_8_108"/>
<feBlend mode="normal" in="SourceGraphic" in2="effect1_dropShadow_8_108" result="shape"/>
</filter>
<filter id="filter12_d_8_108" x="304.829" y="142.68" width="21.9843" height="25.6437" filterUnits="userSpaceOnUse" color-interpolation-filters="sRGB">
<feFlood flood-opacity="0" result="BackgroundImageFix"/>
<feColorMatrix in="SourceAlpha" type="matrix" values="0 0 0 0 0 0 0 0 0 0 0 0 0 0 0 0 0 0 127 0" result="hardAlpha"/>
<feOffset dy="3.65568"/>
<feGaussianBlur stdDeviation="1.32518"/>
<feComposite in2="hardAlpha" operator="out"/>
<feColorMatrix type="matrix" values="0 0 0 0 0 0 0 0 0 0 0 0 0 0 0 0 0 0 0.44 0"/>
<feBlend mode="normal" in2="BackgroundImageFix" result="effect1_dropShadow_8_108"/>
<feBlend mode="normal" in="SourceGraphic" in2="effect1_dropShadow_8_108" result="shape"/>
</filter>
<filter id="filter13_d_8_108" x="245.51" y="101.448" width="21.9843" height="25.6437" filterUnits="userSpaceOnUse" color-interpolation-filters="sRGB">
<feFlood flood-opacity="0" result="BackgroundImageFix"/>
<feColorMatrix in="SourceAlpha" type="matrix" values="0 0 0 0 0 0 0 0 0 0 0 0 0 0 0 0 0 0 127 0" result="hardAlpha"/>
<feOffset dy="3.65568"/>
<feGaussianBlur stdDeviation="1.32518"/>
<feComposite in2="hardAlpha" operator="out"/>
<feColorMatrix type="matrix" values="0 0 0 0 0 0 0 0 0 0 0 0 0 0 0 0 0 0 0.44 0"/>
<feBlend mode="normal" in2="BackgroundImageFix" result="effect1_dropShadow_8_108"/>
<feBlend mode="normal" in="SourceGraphic" in2="effect1_dropShadow_8_108" result="shape"/>
</filter>
<filter id="filter14_d_8_108" x="197.314" y="103.366" width="21.9843" height="25.6437" filterUnits="userSpaceOnUse" color-interpolation-filters="sRGB">
<feFlood flood-opacity="0" result="BackgroundImageFix"/>
<feColorMatrix in="SourceAlpha" type="matrix" values="0 0 0 0 0 0 0 0 0 0 0 0 0 0 0 0 0 0 127 0" result="hardAlpha"/>
<feOffset dy="3.65568"/>
<feGaussianBlur stdDeviation="1.32518"/>
<feComposite in2="hardAlpha" operator="out"/>
<feColorMatrix type="matrix" values="0 0 0 0 0 0 0 0 0 0 0 0 0 0 0 0 0 0 0.44 0"/>
<feBlend mode="normal" in2="BackgroundImageFix" result="effect1_dropShadow_8_108"/>
<feBlend mode="normal" in="SourceGraphic" in2="effect1_dropShadow_8_108" result="shape"/>
</filter>
<filter id="filter15_d_8_108" x="175.996" y="166.652" width="21.9843" height="25.6437" filterUnits="userSpaceOnUse" color-interpolation-filters="sRGB">
<feFlood flood-opacity="0" result="BackgroundImageFix"/>
<feColorMatrix in="SourceAlpha" type="matrix" values="0 0 0 0 0 0 0 0 0 0 0 0 0 0 0 0 0 0 127 0" result="hardAlpha"/>
<feOffset dy="3.65568"/>
<feGaussianBlur stdDeviation="1.32518"/>
<feComposite in2="hardAlpha" operator="out"/>
<feColorMatrix type="matrix" values="0 0 0 0 0 0 0 0 0 0 0 0 0 0 0 0 0 0 0.44 0"/>
<feBlend mode="normal" in2="BackgroundImageFix" result="effect1_dropShadow_8_108"/>
<feBlend mode="normal" in="SourceGraphic" in2="effect1_dropShadow_8_108" result="shape"/>
</filter>
<filter id="filter16_d_8_108" x="188.973" y="236.649" width="21.9843" height="25.6437" filterUnits="userSpaceOnUse" color-interpolation-filters="sRGB">
<feFlood flood-opacity="0" result="BackgroundImageFix"/>
<feColorMatrix in="SourceAlpha" type="matrix" values="0 0 0 0 0 0 0 0 0 0 0 0 0 0 0 0 0 0 127 0" result="hardAlpha"/>
<feOffset dy="3.65568"/>
<feGaussianBlur stdDeviation="1.32518"/>
<feComposite in2="hardAlpha" operator="out"/>
<feColorMatrix type="matrix" values="0 0 0 0 0 0 0 0 0 0 0 0 0 0 0 0 0 0 0.44 0"/>
<feBlend mode="normal" in2="BackgroundImageFix" result="effect1_dropShadow_8_108"/>
<feBlend mode="normal" in="SourceGraphic" in2="effect1_dropShadow_8_108" result="shape"/>
</filter>
<filter id="filter17_d_8_108" x="178.777" y="236.649" width="21.9843" height="25.6437" filterUnits="userSpaceOnUse" color-interpolation-filters="sRGB">
<feFlood flood-opacity="0" result="BackgroundImageFix"/>
<feColorMatrix in="SourceAlpha" type="matrix" values="0 0 0 0 0 0 0 0 0 0 0 0 0 0 0 0 0 0 127 0" result="hardAlpha"/>
<feOffset dy="3.65568"/>
<feGaussianBlur stdDeviation="1.32518"/>
<feComposite in2="hardAlpha" operator="out"/>
<feColorMatrix type="matrix" values="0 0 0 0 0 0 0 0 0 0 0 0 0 0 0 0 0 0 0.44 0"/>
<feBlend mode="normal" in2="BackgroundImageFix" result="effect1_dropShadow_8_108"/>
<feBlend mode="normal" in="SourceGraphic" in2="effect1_dropShadow_8_108" result="shape"/>
</filter>
<filter id="filter18_d_8_108" x="175.996" y="224.185" width="21.9843" height="25.6437" filterUnits="userSpaceOnUse" color-interpolation-filters="sRGB">
<feFlood flood-opacity="0" result="BackgroundImageFix"/>
<feColorMatrix in="SourceAlpha" type="matrix" values="0 0 0 0 0 0 0 0 0 0 0 0 0 0 0 0 0 0 127 0" result="hardAlpha"/>
<feOffset dy="3.65568"/>
<feGaussianBlur stdDeviation="1.32518"/>
<feComposite in2="hardAlpha" operator="out"/>
<feColorMatrix type="matrix" values="0 0 0 0 0 0 0 0 0 0 0 0 0 0 0 0 0 0 0.44 0"/>
<feBlend mode="normal" in2="BackgroundImageFix" result="effect1_dropShadow_8_108"/>
<feBlend mode="normal" in="SourceGraphic" in2="effect1_dropShadow_8_108" result="shape"/>
</filter>
<filter id="filter19_d_8_108" x="195.459" y="212.678" width="21.9843" height="25.6437" filterUnits="userSpaceOnUse" color-interpolation-filters="sRGB">
<feFlood flood-opacity="0" result="BackgroundImageFix"/>
<feColorMatrix in="SourceAlpha" type="matrix" values="0 0 0 0 0 0 0 0 0 0 0 0 0 0 0 0 0 0 127 0" result="hardAlpha"/>
<feOffset dy="3.65568"/>
<feGaussianBlur stdDeviation="1.32518"/>
<feComposite in2="hardAlpha" operator="out"/>
<feColorMatrix type="matrix" values="0 0 0 0 0 0 0 0 0 0 0 0 0 0 0 0 0 0 0.44 0"/>
<feBlend mode="normal" in2="BackgroundImageFix" result="effect1_dropShadow_8_108"/>
<feBlend mode="normal" in="SourceGraphic" in2="effect1_dropShadow_8_108" result="shape"/>
</filter>
<filter id="filter20_d_8_108" x="140.775" y="170.488" width="21.9843" height="25.6437" filterUnits="userSpaceOnUse" color-interpolation-filters="sRGB">
<feFlood flood-opacity="0" result="BackgroundImageFix"/>
<feColorMatrix in="SourceAlpha" type="matrix" values="0 0 0 0 0 0 0 0 0 0 0 0 0 0 0 0 0 0 127 0" result="hardAlpha"/>
<feOffset dy="3.65568"/>
<feGaussianBlur stdDeviation="1.32518"/>
<feComposite in2="hardAlpha" operator="out"/>
<feColorMatrix type="matrix" values="0 0 0 0 0 0 0 0 0 0 0 0 0 0 0 0 0 0 0.44 0"/>
<feBlend mode="normal" in2="BackgroundImageFix" result="effect1_dropShadow_8_108"/>
<feBlend mode="normal" in="SourceGraphic" in2="effect1_dropShadow_8_108" result="shape"/>
</filter>
<filter id="filter21_d_8_108" x="69.4092" y="227.062" width="21.9843" height="25.6437" filterUnits="userSpaceOnUse" color-interpolation-filters="sRGB">
<feFlood flood-opacity="0" result="BackgroundImageFix"/>
<feColorMatrix in="SourceAlpha" type="matrix" values="0 0 0 0 0 0 0 0 0 0 0 0 0 0 0 0 0 0 127 0" result="hardAlpha"/>
<feOffset dy="3.65568"/>
<feGaussianBlur stdDeviation="1.32518"/>
<feComposite in2="hardAlpha" operator="out"/>
<feColorMatrix type="matrix" values="0 0 0 0 0 0 0 0 0 0 0 0 0 0 0 0 0 0 0.44 0"/>
<feBlend mode="normal" in2="BackgroundImageFix" result="effect1_dropShadow_8_108"/>
<feBlend mode="normal" in="SourceGraphic" in2="effect1_dropShadow_8_108" result="shape"/>
</filter>
<filter id="filter22_d_8_108" x="52.7256" y="251.992" width="21.9843" height="25.6437" filterUnits="userSpaceOnUse" color-interpolation-filters="sRGB">
<feFlood flood-opacity="0" result="BackgroundImageFix"/>
<feColorMatrix in="SourceAlpha" type="matrix" values="0 0 0 0 0 0 0 0 0 0 0 0 0 0 0 0 0 0 127 0" result="hardAlpha"/>
<feOffset dy="3.65568"/>
<feGaussianBlur stdDeviation="1.32518"/>
<feComposite in2="hardAlpha" operator="out"/>
<feColorMatrix type="matrix" values="0 0 0 0 0 0 0 0 0 0 0 0 0 0 0 0 0 0 0.44 0"/>
<feBlend mode="normal" in2="BackgroundImageFix" result="effect1_dropShadow_8_108"/>
<feBlend mode="normal" in="SourceGraphic" in2="effect1_dropShadow_8_108" result="shape"/>
</filter>
<filter id="filter23_d_8_108" x="44.3838" y="203.089" width="21.9843" height="25.6437" filterUnits="userSpaceOnUse" color-interpolation-filters="sRGB">
<feFlood flood-opacity="0" result="BackgroundImageFix"/>
<feColorMatrix in="SourceAlpha" type="matrix" values="0 0 0 0 0 0 0 0 0 0 0 0 0 0 0 0 0 0 127 0" result="hardAlpha"/>
<feOffset dy="3.65568"/>
<feGaussianBlur stdDeviation="1.32518"/>
<feComposite in2="hardAlpha" operator="out"/>
<feColorMatrix type="matrix" values="0 0 0 0 0 0 0 0 0 0 0 0 0 0 0 0 0 0 0.44 0"/>
<feBlend mode="normal" in2="BackgroundImageFix" result="effect1_dropShadow_8_108"/>
<feBlend mode="normal" in="SourceGraphic" in2="effect1_dropShadow_8_108" result="shape"/>
</filter>
<filter id="filter24_d_8_108" x="61.0664" y="205.007" width="21.9843" height="25.6437" filterUnits="userSpaceOnUse" color-interpolation-filters="sRGB">
<feFlood flood-opacity="0" result="BackgroundImageFix"/>
<feColorMatrix in="SourceAlpha" type="matrix" values="0 0 0 0 0 0 0 0 0 0 0 0 0 0 0 0 0 0 127 0" result="hardAlpha"/>
<feOffset dy="3.65568"/>
<feGaussianBlur stdDeviation="1.32518"/>
<feComposite in2="hardAlpha" operator="out"/>
<feColorMatrix type="matrix" values="0 0 0 0 0 0 0 0 0 0 0 0 0 0 0 0 0 0 0.44 0"/>
<feBlend mode="normal" in2="BackgroundImageFix" result="effect1_dropShadow_8_108"/>
<feBlend mode="normal" in="SourceGraphic" in2="effect1_dropShadow_8_108" result="shape"/>
</filter>
<filter id="filter25_d_8_108" x="347.464" y="232.815" width="21.9843" height="25.6437" filterUnits="userSpaceOnUse" color-interpolation-filters="sRGB">
<feFlood flood-opacity="0" result="BackgroundImageFix"/>
<feColorMatrix in="SourceAlpha" type="matrix" values="0 0 0 0 0 0 0 0 0 0 0 0 0 0 0 0 0 0 127 0" result="hardAlpha"/>
<feOffset dy="3.65568"/>
<feGaussianBlur stdDeviation="1.32518"/>
<feComposite in2="hardAlpha" operator="out"/>
<feColorMatrix type="matrix" values="0 0 0 0 0 0 0 0 0 0 0 0 0 0 0 0 0 0 0.44 0"/>
<feBlend mode="normal" in2="BackgroundImageFix" result="effect1_dropShadow_8_108"/>
<feBlend mode="normal" in="SourceGraphic" in2="effect1_dropShadow_8_108" result="shape"/>
</filter>
<filter id="filter26_d_8_108" x="404.002" y="61.1748" width="21.9843" height="25.6437" filterUnits="userSpaceOnUse" color-interpolation-filters="sRGB">
<feFlood flood-opacity="0" result="BackgroundImageFix"/>
<feColorMatrix in="SourceAlpha" type="matrix" values="0 0 0 0 0 0 0 0 0 0 0 0 0 0 0 0 0 0 127 0" result="hardAlpha"/>
<feOffset dy="3.65568"/>
<feGaussianBlur stdDeviation="1.32518"/>
<feComposite in2="hardAlpha" operator="out"/>
<feColorMatrix type="matrix" values="0 0 0 0 0 0 0 0 0 0 0 0 0 0 0 0 0 0 0.44 0"/>
<feBlend mode="normal" in2="BackgroundImageFix" result="effect1_dropShadow_8_108"/>
<feBlend mode="normal" in="SourceGraphic" in2="effect1_dropShadow_8_108" result="shape"/>
</filter>
<filter id="filter27_d_8_108" x="9.16311" y="124.461" width="21.9843" height="25.6437" filterUnits="userSpaceOnUse" color-interpolation-filters="sRGB">
<feFlood flood-opacity="0" result="BackgroundImageFix"/>
<feColorMatrix in="SourceAlpha" type="matrix" values="0 0 0 0 0 0 0 0 0 0 0 0 0 0 0 0 0 0 127 0" result="hardAlpha"/>
<feOffset dy="3.65568"/>
<feGaussianBlur stdDeviation="1.32518"/>
<feComposite in2="hardAlpha" operator="out"/>
<feColorMatrix type="matrix" values="0 0 0 0 0 0 0 0 0 0 0 0 0 0 0 0 0 0 0.44 0"/>
<feBlend mode="normal" in2="BackgroundImageFix" result="effect1_dropShadow_8_108"/>
<feBlend mode="normal" in="SourceGraphic" in2="effect1_dropShadow_8_108" result="shape"/>
</filter>
<filter id="filter28_d_8_108" x="275.17" y="155.145" width="21.9843" height="25.6437" filterUnits="userSpaceOnUse" color-interpolation-filters="sRGB">
<feFlood flood-opacity="0" result="BackgroundImageFix"/>
<feColorMatrix in="SourceAlpha" type="matrix" values="0 0 0 0 0 0 0 0 0 0 0 0 0 0 0 0 0 0 127 0" result="hardAlpha"/>
<feOffset dy="3.65568"/>
<feGaussianBlur stdDeviation="1.32518"/>
<feComposite in2="hardAlpha" operator="out"/>
<feColorMatrix type="matrix" values="0 0 0 0 0 0 0 0 0 0 0 0 0 0 0 0 0 0 0.44 0"/>
<feBlend mode="normal" in2="BackgroundImageFix" result="effect1_dropShadow_8_108"/>
<feBlend mode="normal" in="SourceGraphic" in2="effect1_dropShadow_8_108" result="shape"/>
</filter>
<filter id="filter29_d_8_108" x="267.755" y="178.158" width="21.9843" height="25.6437" filterUnits="userSpaceOnUse" color-interpolation-filters="sRGB">
<feFlood flood-opacity="0" result="BackgroundImageFix"/>
<feColorMatrix in="SourceAlpha" type="matrix" values="0 0 0 0 0 0 0 0 0 0 0 0 0 0 0 0 0 0 127 0" result="hardAlpha"/>
<feOffset dy="3.65568"/>
<feGaussianBlur stdDeviation="1.32518"/>
<feComposite in2="hardAlpha" operator="out"/>
<feColorMatrix type="matrix" values="0 0 0 0 0 0 0 0 0 0 0 0 0 0 0 0 0 0 0.44 0"/>
<feBlend mode="normal" in2="BackgroundImageFix" result="effect1_dropShadow_8_108"/>
<feBlend mode="normal" in="SourceGraphic" in2="effect1_dropShadow_8_108" result="shape"/>
</filter>
</defs>
</svg>
