<svg width="13" height="13" viewBox="0 0 13 13" fill="none" xmlns="http://www.w3.org/2000/svg">
<g clip-path="url(#clip0_35_240)">
<path fill-rule="evenodd" clip-rule="evenodd" d="M6.87068 8.77131C6.73388 8.90794 6.54845 8.98468 6.35511 8.98468C6.16178 8.98468 5.97634 8.90794 5.83955 8.77131L3.08761 6.02034C2.95081 5.88348 2.87398 5.69787 2.87402 5.50436C2.87407 5.31085 2.95098 5.12529 3.08785 4.98849C3.22471 4.85169 3.41032 4.77486 3.60383 4.7749C3.79734 4.77495 3.98291 4.85186 4.11971 4.98873L6.35511 7.22414L8.59052 4.98873C8.72806 4.85577 8.91231 4.78214 9.10361 4.78371C9.2949 4.78528 9.47792 4.86193 9.61326 4.99713C9.74859 5.13234 9.8254 5.31529 9.82715 5.50658C9.82891 5.69787 9.75546 5.8822 9.62262 6.01986L6.87116 8.7718L6.87068 8.77131Z" fill="white"/>
</g>
<defs>
<clipPath id="clip0_35_240">
<rect width="11.6731" height="11.6731" fill="white" transform="translate(0.518555 0.959961)"/>
</clipPath>
</defs>
</svg>
