<svg width="11" height="12" viewBox="0 0 11 12" fill="none" xmlns="http://www.w3.org/2000/svg">
<path d="M6.6793 3.27583H4.08916M1.49902 5.47659V7.63202C1.49902 8.96853 1.49902 9.63722 1.81588 9.92904C1.96698 10.0685 2.15778 10.1561 2.36111 10.1794C2.78719 10.2282 3.28493 9.78788 4.27997 8.90766C4.7203 8.51871 4.94003 8.32402 5.19429 8.27308C5.31948 8.24718 5.44899 8.24718 5.57418 8.27308C5.82887 8.32402 6.04861 8.51871 6.4885 8.90766C7.48354 9.78788 7.98128 10.2282 8.40736 10.179C8.61025 10.1561 8.80149 10.0685 8.95258 9.92904C9.26945 9.63722 9.26945 8.96896 9.26945 7.63202V5.47616C9.26945 3.62507 9.26944 2.69953 8.70048 2.12408C8.13151 1.54864 7.21546 1.54907 5.38423 1.54907C3.553 1.54907 2.63696 1.54907 2.06799 2.12408C1.71962 2.47634 1.5845 2.9607 1.53226 3.70752L1.49902 5.47659Z" stroke="white" stroke-width="0.690704" stroke-linecap="round"/>
</svg>
