<svg width="44" height="44" viewBox="0 0 44 44" fill="none" xmlns="http://www.w3.org/2000/svg">
<path fill-rule="evenodd" clip-rule="evenodd" d="M38.5431 20.1126V29.0852C38.5431 34.6488 38.5431 37.4325 37.224 38.6473C36.5951 39.2277 35.8008 39.5925 34.9544 39.6895C33.1807 39.8926 31.1087 38.0596 26.9665 34.3955C25.1335 32.7763 24.2188 31.9659 23.1604 31.7538C22.6386 31.6473 22.1007 31.6473 21.579 31.7538C20.5187 31.9659 19.604 32.7763 17.7728 34.3955C13.6307 38.0596 11.5587 39.8926 9.78498 39.6877C8.93727 39.5902 8.14247 39.2259 7.51532 38.6473C6.19629 37.4325 6.19629 34.6506 6.19629 29.0852V20.1108C6.19629 12.4068 6.19629 8.55398 8.56479 6.15852C10.9333 3.76306 14.7466 3.76306 22.3697 3.76306C29.9927 3.76306 33.8061 3.76306 36.1746 6.15672C38.5431 8.55038 38.5431 12.4068 38.5431 20.1126ZM15.6308 10.9512C15.6308 10.5938 15.7728 10.251 16.0255 9.99821C16.2783 9.74545 16.6211 9.60345 16.9785 9.60345H27.7608C28.1183 9.60345 28.4611 9.74545 28.7138 9.99821C28.9666 10.251 29.1086 10.5938 29.1086 10.9512C29.1086 11.3087 28.9666 11.6515 28.7138 11.9043C28.4611 12.157 28.1183 12.299 27.7608 12.299H16.9785C16.6211 12.299 16.2783 12.157 16.0255 11.9043C15.7728 11.6515 15.6308 11.3087 15.6308 10.9512Z" fill="white"/>
</svg>
