<svg width="11" height="12" viewBox="0 0 11 12" fill="none" xmlns="http://www.w3.org/2000/svg">
<path d="M6.84727 3.27583H4.25713M1.66699 5.47659V7.63202C1.66699 8.96853 1.66699 9.63722 1.98385 9.92904C2.13494 10.0685 2.32575 10.1561 2.52908 10.1794C2.95516 10.2282 3.45289 9.78788 4.44794 8.90766C4.88826 8.51871 5.10799 8.32402 5.36226 8.27308C5.48745 8.24718 5.61696 8.24718 5.74215 8.27308C5.99684 8.32402 6.21657 8.51871 6.65647 8.90766C7.65151 9.78788 8.14925 10.2282 8.57533 10.179C8.77822 10.1561 8.96946 10.0685 9.12055 9.92904C9.43741 9.63722 9.43741 8.96896 9.43741 7.63202V5.47616C9.43741 3.62507 9.43741 2.69953 8.86845 2.12408C8.29948 1.54864 7.38343 1.54907 5.5522 1.54907C3.72097 1.54907 2.80493 1.54907 2.23596 2.12408C1.88759 2.47634 1.75247 2.9607 1.70023 3.70752L1.66699 5.47659Z" stroke="white" stroke-width="0.690704" stroke-linecap="round"/>
</svg>
