<svg width="11" height="12" viewBox="0 0 11 12" fill="none" xmlns="http://www.w3.org/2000/svg">
<g clip-path="url(#clip0_8_15)">
<path d="M6.51817 3.27583H3.92803M1.33789 5.47659V7.63202C1.33789 8.96853 1.33789 9.63722 1.65475 9.92904C1.80584 10.0685 1.99665 10.1561 2.19998 10.1794C2.62605 10.2282 3.12379 9.78788 4.11884 8.90766C4.55916 8.51871 4.77889 8.32402 5.03316 8.27308C5.15835 8.24718 5.28785 8.24718 5.41304 8.27308C5.66774 8.32402 5.88747 8.51871 6.32736 8.90766C7.32241 9.78788 7.82015 10.2282 8.24623 10.179C8.44912 10.1561 8.64036 10.0685 8.79145 9.92904C9.10831 9.63722 9.10831 8.96896 9.10831 7.63202V5.47616C9.10831 3.62507 9.10831 2.69953 8.53934 2.12408C7.97038 1.54864 7.05433 1.54907 5.2231 1.54907C3.39187 1.54907 2.47583 1.54907 1.90686 2.12408C1.55848 2.47634 1.42337 2.9607 1.37113 3.70752L1.33789 5.47659Z" stroke="white" stroke-width="0.690704" stroke-linecap="round"/>
</g>
<defs>
<clipPath id="clip0_8_15">
<rect width="10.3606" height="10.3606" fill="white" transform="translate(0.0429688 0.685791)"/>
</clipPath>
</defs>
</svg>
