<svg width="45" height="45" viewBox="0 0 45 45" fill="none" xmlns="http://www.w3.org/2000/svg">
<path fill-rule="evenodd" clip-rule="evenodd" d="M25.8667 9.94444C25.8667 6.57175 28.6162 3.83511 32.0035 3.83511C32.8078 3.83294 33.6046 3.98927 34.3485 4.29516C35.0923 4.60105 35.7686 5.05052 36.3387 5.61787C36.9087 6.18522 37.3614 6.85934 37.6709 7.60171C37.9803 8.34408 38.1405 9.14016 38.1422 9.94444C38.1422 13.319 35.3927 16.0556 32.0035 16.0556C31.1908 16.0562 30.3861 15.8955 29.6359 15.5827C28.8858 15.2699 28.2052 14.8114 27.6337 14.2336L19.1378 20.0185C19.374 21.1971 19.2579 22.4192 18.8042 23.5323L28.1194 29.6545C29.2169 28.7602 30.5897 28.2727 32.0053 28.2743C32.8096 28.2723 33.6064 28.4289 34.3502 28.735C35.0939 29.0411 35.7701 29.4908 36.34 30.0583C36.9099 30.6259 37.3624 31.3001 37.6716 32.0426C37.9808 32.785 38.1407 33.5812 38.1422 34.3854C38.1422 37.7581 35.3927 40.4948 32.0035 40.4948C31.1994 40.4967 30.4027 40.3402 29.6591 40.0342C28.9155 39.7282 28.2394 39.2787 27.6695 38.7114C27.0997 38.144 26.6471 37.47 26.3378 36.7277C26.0284 35.9855 25.8684 35.1896 25.8667 34.3854C25.8653 33.5288 26.0458 32.6816 26.3964 31.8999L17.1545 25.8309C16.035 26.8035 14.6013 27.338 13.1183 27.3358C12.314 27.3377 11.5172 27.1812 10.7735 26.875C10.0297 26.5689 9.35356 26.1192 8.78366 25.5517C8.21375 24.9842 7.76125 24.3099 7.45202 23.5675C7.14279 22.825 6.98289 22.0289 6.98145 21.2246C6.98313 20.4205 7.14321 19.6246 7.45255 18.8823C7.76189 18.1401 8.21442 17.466 8.7843 16.8987C9.35418 16.3314 10.0302 15.8819 10.7739 15.5759C11.5175 15.2699 12.3141 15.1134 13.1183 15.1153C15.0686 15.1153 16.8026 16.0189 17.9262 17.4267L26.1618 11.8196C25.9653 11.214 25.8657 10.5811 25.8667 9.94444Z" fill="white"/>
</svg>
